
<svg  version="1.1"
          baseProfile="full"
          width="448" height="270" transform="" >
<pattern id="diagonalHatch" patternUnits="userSpaceOnUse" width="4" height="4">
            <rect x="0" y="0" width="4" height="4" fill="white"/>
            <path d="M-1,1 l2,-2
                     M0,4 l4,-4
                     M3,5 l2,-2"
            style="stroke:rgb(64,64,64); stroke-width:1" />
            </pattern>


<text x="80" y="268.4"  font-family="Arial" font-size="12" text-anchor="middle" fill="black" >Jan</text>
<line x1="80" x2="80" y1="250" y2="251.6" stroke="black" stroke-width="1.6"/>
<line x1="56" x2="104" y1="250" y2="250" stroke="black" stroke-width="1.6"/>
<rect x="74.4" y="46.7688663282572" width="11.2" height="11.2" fill="rgb(64,64,64)" stroke="rgb(64,64,64)" />

<text x="80" y="41.9688663282572"  font-family="Arial" font-size="12" text-anchor="middle" fill="rgb(64,64,64)" >5.84</text>
<line x1="85.6" x2="128" y1="52.3688663282572" y2="50" stroke="rgb(64,64,64)" stroke-width="1.6"/>

<text x="128" y="268.4"  font-family="Arial" font-size="12" text-anchor="middle" fill="black" >Feb</text>
<line x1="128" x2="128" y1="250" y2="251.6" stroke="black" stroke-width="1.6"/>
<line x1="104" x2="152" y1="250" y2="250" stroke="black" stroke-width="1.6"/>
<rect x="122.4" y="44.4" width="11.2" height="11.2" fill="rgb(64,64,64)" stroke="rgb(64,64,64)" />

<text x="128" y="39.6"  font-family="Arial" font-size="12" text-anchor="middle" fill="rgb(64,64,64)" >5.91</text>
<line x1="133.6" x2="176" y1="50" y2="76.0575296108291" stroke="rgb(64,64,64)" stroke-width="1.6"/>

<text x="176" y="268.4"  font-family="Arial" font-size="12" text-anchor="middle" fill="black" >Mar</text>
<line x1="176" x2="176" y1="250" y2="251.6" stroke="black" stroke-width="1.6"/>
<line x1="152" x2="200" y1="250" y2="250" stroke="black" stroke-width="1.6"/>
<rect x="170.4" y="70.4575296108291" width="11.2" height="11.2" fill="rgb(64,64,64)" stroke="rgb(64,64,64)" />

<text x="176" y="65.6575296108291"  font-family="Arial" font-size="12" text-anchor="middle" fill="rgb(64,64,64)" >5.14</text>
<line x1="181.6" x2="224" y1="76.0575296108291" y2="106.514382402707" stroke="rgb(64,64,64)" stroke-width="1.6"/>

<text x="224" y="268.4"  font-family="Arial" font-size="12" text-anchor="middle" fill="black" >Apr</text>
<line x1="224" x2="224" y1="250" y2="251.6" stroke="black" stroke-width="1.6"/>
<line x1="200" x2="248" y1="250" y2="250" stroke="black" stroke-width="1.6"/>
<rect x="218.4" y="100.914382402707" width="11.2" height="11.2" fill="rgb(64,64,64)" stroke="rgb(64,64,64)" />

<text x="224" y="96.1143824027073"  font-family="Arial" font-size="12" text-anchor="middle" fill="rgb(64,64,64)" >4.24</text>
<line x1="229.6" x2="272" y1="106.514382402707" y2="113.282571912014" stroke="rgb(64,64,64)" stroke-width="1.6"/>

<text x="272" y="268.4"  font-family="Arial" font-size="12" text-anchor="middle" fill="black" >May</text>
<line x1="272" x2="272" y1="250" y2="251.6" stroke="black" stroke-width="1.6"/>
<line x1="248" x2="296" y1="250" y2="250" stroke="black" stroke-width="1.6"/>
<rect x="266.4" y="107.682571912014" width="11.2" height="11.2" fill="rgb(64,64,64)" stroke="rgb(64,64,64)" />

<text x="272" y="102.882571912014"  font-family="Arial" font-size="12" text-anchor="middle" fill="rgb(64,64,64)" >4.04</text>
<line x1="277.6" x2="320" y1="113.282571912014" y2="90.2707275803723" stroke="rgb(64,64,64)" stroke-width="1.6"/>

<text x="320" y="268.4"  font-family="Arial" font-size="12" text-anchor="middle" fill="black" >Jun</text>
<line x1="320" x2="320" y1="250" y2="251.6" stroke="black" stroke-width="1.6"/>
<line x1="296" x2="344" y1="250" y2="250" stroke="black" stroke-width="1.6"/>
<rect x="314.4" y="84.6707275803723" width="11.2" height="11.2" fill="rgb(64,64,64)" stroke="rgb(64,64,64)" />

<text x="320" y="79.8707275803723"  font-family="Arial" font-size="12" text-anchor="middle" fill="rgb(64,64,64)" >4.72</text>


<text x="69.6" y="55.3688663282572"  font-family="Arial" font-size="12" text-anchor="end" fill="black" >values</text>
</svg>
